Coordinates
version=1
nRows=8
nColumns=40
inDegrees=yes

Units are S.I. units (second, meters, Newtons, ...)
Angles are in degrees.

endheader
time	pelvis_tilt	pelvis_list	pelvis_rotation	pelvis_tx	pelvis_ty	pelvis_tz	hip_flexion_r	hip_adduction_r	hip_rotation_r	knee_angle_r	knee_angle_r_beta	ankle_angle_r	subtalar_angle_r	mtp_angle_r	hip_flexion_l	hip_adduction_l	hip_rotation_l	knee_angle_l	knee_angle_l_beta	ankle_angle_l	subtalar_angle_l	mtp_angle_l	lumbar_extension	lumbar_bending	lumbar_rotation	arm_flex_r	arm_add_r	arm_rot_r	elbow_flex_r	pro_sup_r	wrist_flex_r	wrist_dev_r	arm_flex_l	arm_add_l	arm_rot_l	elbow_flex_l	pro_sup_l	wrist_flex_l	wrist_dev_l
     46.42042857	     -3.72391103	     -5.45087984	      3.92412813	      0.93506956	      0.93210497	      0.50722748	     10.17617545	      4.36628881	    -17.49338692	     13.85285093	     13.85285093	     10.44012820	      3.59832756	     -5.40481988	     32.27809690	    -11.22633875	      0.10223358	     46.10828178	     46.10828178	      9.20814956	    -15.88183964	      8.21624936	    -10.60263772	      7.80174520	      2.48746445	     30.82909509	    -15.42213219	      0.22133112	     53.41125093	     45.35637929	      0.00000000	      0.00000000	     -1.93319450	     -6.67103831	     -4.46873996	     26.31976919	     45.64652405	      0.00000000	      0.00000000
     46.43335714	     -3.97767651	     -5.69328090	      4.29170959	      0.93395945	      0.93155768	      0.50688725	     10.05679309	      4.61202307	    -17.74815900	     13.79736180	     13.79736180	     10.71077902	      3.44478099	     -5.54833887	     32.83611605	    -11.11270126	      0.29087475	     42.44879769	     42.44879769	      9.62502038	    -14.97178131	      8.54481142	    -10.26451614	      8.21945451	      2.93185831	     32.13468904	    -15.75255640	      0.09035204	     54.19173124	     45.34135804	      0.00000000	      0.00000000	     -2.62644825	     -6.59033536	     -4.42335444	     26.18702643	     45.62612534	      0.00000000	      0.00000000
     46.44628571	     -3.94220841	     -5.36220974	      4.62112148	      0.93323395	      0.93195573	      0.50612857	      9.19522047	      4.33076617	    -17.99678852	     13.04016207	     13.04016207	     10.69629123	      3.84995989	     -6.12676324	     32.44189303	    -10.35138479	      0.22527530	     38.00831511	     38.00831511	      9.41738309	    -14.30572821	      8.07155107	    -10.57295463	      7.93019448	      3.15450319	     31.82750361	    -16.45639336	      0.30209049	     60.39450303	     45.12597841	      0.00000000	      0.00000000	     -3.88416335	     -6.80873689	     -2.82937863	     27.59146329	     45.33737557	      0.00000000	      0.00000000
     46.45921429	     -4.01687934	     -5.37874512	      4.92749379	      0.93235079	      0.93177910	      0.50555917	      8.68681755	      4.39341722	    -18.20331336	     12.66820183	     12.66820183	     10.87808955	      3.88892197	     -6.18758735	     32.36720294	     -9.96259326	      0.35296248	     33.95510052	     33.95510052	      9.69927910	    -13.01619181	      8.39630717	    -10.54232450	      8.05716176	      3.04010655	     33.14265874	    -16.18631681	      0.17712038	     62.11192666	     45.08257533	      0.00000000	      0.00000000	     -4.77370598	     -6.85702129	     -2.38585151	     27.37731219	     45.25601828	      0.00000000	      0.00000000
     46.47214286	     -4.11612065	     -5.47549745	      5.21901704	      0.93156786	      0.93142006	      0.50491454	      8.19110063	      4.51750096	    -18.55362293	     12.27320584	     12.27320584	     11.05747151	      4.26725690	     -6.33351850	     32.29180500	     -9.66554446	      0.48228869	     30.04049935	     30.04049935	      9.90877018	    -11.39419685	      8.54101444	    -10.52738090	      8.25310940	      3.06568120	     33.84266490	    -16.22114125	      0.09447965	     65.20428252	     44.99470555	      0.00000000	      0.00000000	     -5.78157905	     -6.96668821	     -1.60843139	     27.85366422	     45.12298638	      0.00000000	      0.00000000
     46.48507143	     -4.22178593	     -5.49242413	      5.45162302	      0.93084586	      0.93100578	      0.50418939	      7.79536172	      4.54236750	    -18.68668286	     12.08942828	     12.08942828	     11.32905633	      4.30052495	     -6.43916794	     32.12439804	     -9.31068254	      0.49816392	     26.27560825	     26.27560825	     10.10228350	     -9.66787727	      9.03388304	    -10.43322641	      8.34700520	      3.14304945	     34.89223884	    -16.11960439	      0.02433151	     66.67571808	     44.95600724	      0.00000000	      0.00000000	     -6.50429294	     -6.96594680	     -1.37357722	     27.82534670	     45.07776088	      0.00000000	      0.00000000
     46.49800000	     -4.31113908	     -5.57695830	      5.67375185	      0.93027268	      0.93051499	      0.50345817	      7.32106363	      4.65706051	    -18.87966114	     11.79330175	     11.79330175	     11.59004312	      4.49368301	     -6.52568065	     31.96627954	     -9.05335219	      0.45062705	     22.87915735	     22.87915735	     10.21223946	     -7.85550806	      9.58476980	    -10.37022611	      8.46435314	      3.05223175	     35.83572588	    -15.82998554	      0.02266398	     68.53611048	     44.90118411	      0.00000000	      0.00000000	     -7.28431211	     -6.92677815	     -1.16767906	     27.88356799	     45.03540220	      0.00000000	      0.00000000
     46.51092857	     -4.26702026	     -5.72141630	      5.88620004	      0.92994121	      0.93010774	      0.50264119	      6.64457660	      4.85304554	    -19.17108294	     11.40639493	     11.40639493	     11.84858048	      4.93464412	     -6.59828784	     31.75916519	     -8.91588314	      0.22661824	     20.06328414	     20.06328414	     10.31402313	     -6.05743408	     10.22754122	    -10.48594317	      8.68022841	      2.93092253	     36.52248255	    -15.60751835	      0.05885920	     71.38181960	     44.81492586	      0.00000000	      0.00000000	     -8.20570984	     -6.99882852	     -0.88165682	     28.29532371	     44.98049138	      0.00000000	      0.00000000
